M48
; DRILL file KiCad 10.0.1 date 2026-08-19T08:27:57
; FORMAT={-:-/ absolute / metric / decimal}
; #@! TF.CreationDate,2026-08-19T08:27:57+02:00
; #@! TF.GenerationSoftware,Kicad,Pcbnew,10.0.1
; #@! TF.FileFunction,Plated,1,2,PTH
FMAT,2
METRIC
; #@! TA.AperFunction,Plated,PTH,ViaDrill
T1C0.300
; #@! TA.AperFunction,Plated,PTH,ComponentDrill
T2C0.400
; #@! TA.AperFunction,Plated,PTH,ComponentDrill
T3C0.600
; #@! TA.AperFunction,Plated,PTH,ComponentDrill
T4C0.800
; #@! TA.AperFunction,Plated,PTH,ComponentDrill
T5C0.900
; #@! TA.AperFunction,Plated,PTH,ComponentDrill
T6C1.000
; #@! TA.AperFunction,Plated,PTH,ComponentDrill
T7C1.100
; #@! TA.AperFunction,Plated,PTH,ComponentDrill
T8C2.200
%
G90
G05
T1
X113.46Y-72.955
X113.5Y-90.0
X113.5Y-121.5
X113.504Y-66.32
X114.0Y-92.0
X114.0Y-98.5
X114.5Y-106.5
X116.0Y-97.5
X116.476Y-78.49
X117.307Y-80.0
X117.5Y-114.0
X118.0Y-85.5
X118.093Y-66.608
X118.218Y-89.651
X119.178Y-72.702
X120.0Y-100.0
X120.367Y-81.724
X120.5Y-96.0
X121.0Y-86.0
X121.201Y-89.791
X121.373Y-108.77
X122.0Y-80.5
X122.0Y-102.0
X122.786Y-71.915
X123.0Y-76.5
X123.141Y-116.097
X123.199Y-70.918
X123.201Y-119.95
X123.5Y-77.5
X123.671Y-71.967
X123.785Y-81.488
X124.0Y-86.0
X124.266Y-70.901
X124.5Y-90.0
X124.5Y-109.5
X124.636Y-100.446
X124.989Y-66.683
X125.0Y-75.0
X125.0Y-78.0
X125.281Y-70.52
X125.609Y-67.466
X126.0Y-96.0
X126.0Y-110.0
X126.286Y-72.233
X127.0Y-71.5
X127.0Y-90.9
X127.416Y-94.221
X127.85Y-73.684
X128.293Y-98.406
X128.679Y-76.416
X128.69Y-66.153
X129.003Y-77.692
X129.01Y-74.347
X129.239Y-94.091
X129.45Y-67.028
X129.5Y-77.0
X129.5Y-117.0
X130.0Y-72.5
X130.271Y-89.459
X130.271Y-90.46
X130.287Y-100.687
X130.543Y-67.622
X130.797Y-81.803
X130.926Y-77.01
X131.0Y-87.725
X131.401Y-75.494
X131.54Y-66.049
X131.843Y-89.871
X131.923Y-94.065
X131.977Y-77.597
X132.0Y-78.5
X132.0Y-96.0
X132.021Y-74.919
X132.239Y-67.631
X132.5Y-66.5
X132.5Y-100.5
X133.275Y-107.192
X133.781Y-72.997
X133.792Y-72.111
X133.857Y-66.215
X133.928Y-101.413
X134.268Y-67.736
X134.441Y-97.59
X134.441Y-94.056
X134.5Y-71.5
X134.948Y-96.574
X135.0Y-76.315
X135.305Y-85.6
X135.306Y-78.986
X135.378Y-116.641
X135.5Y-71.5
X136.0Y-78.5
X136.0Y-80.5
X136.0Y-84.0
X136.0Y-89.5
X136.882Y-73.052
X136.952Y-76.758
X136.987Y-71.32
X137.0Y-79.0
X137.406Y-67.474
X137.441Y-69.205
X137.5Y-82.442
X137.5Y-90.5
X137.538Y-120.463
X137.572Y-66.197
X137.66Y-77.213
X138.307Y-76.872
X138.419Y-115.349
X138.5Y-85.0
X138.5Y-92.0
X138.5Y-95.5
X139.0Y-89.5
X139.0Y-91.0
X139.881Y-65.576
X139.9Y-102.358
X139.976Y-99.307
X140.5Y-85.5
X140.5Y-95.5
X140.678Y-87.127
X140.773Y-81.0
X141.0Y-121.0
X141.489Y-65.952
X141.5Y-88.557
X141.5Y-90.0
X141.996Y-68.234
X142.516Y-87.11
X143.0Y-74.5
X143.0Y-95.5
X143.42Y-99.261
X143.853Y-110.175
X144.0Y-69.0
X144.095Y-89.447
X144.488Y-66.031
X144.5Y-95.5
X145.0Y-90.5
X145.167Y-99.255
X145.174Y-87.826
X145.379Y-101.628
X145.4Y-89.0
X145.606Y-86.396
X145.694Y-66.451
X145.861Y-69.747
X145.931Y-67.847
X147.26Y-93.757
X147.5Y-98.5
X148.071Y-101.623
X148.75Y-85.44
X149.0Y-78.0
X149.0Y-81.5
X149.0Y-86.71
X149.5Y-75.5
X149.5Y-76.5
X149.738Y-72.848
X150.0Y-80.5
X150.176Y-72.078
X150.222Y-91.466
X150.844Y-81.542
X150.9Y-100.0
X151.128Y-74.299
X151.581Y-73.105
X151.805Y-105.308
X151.853Y-79.178
X152.0Y-81.5
X152.0Y-86.5
X152.0Y-109.5
X152.038Y-108.193
X152.367Y-71.987
X152.5Y-98.5
X152.5Y-116.5
X152.721Y-113.876
X152.888Y-121.46
X153.0Y-91.5
X153.198Y-89.134
X153.245Y-77.21
X153.245Y-78.46
X153.245Y-79.71
X153.394Y-81.278
X153.455Y-93.47
X153.696Y-83.288
X154.156Y-98.342
X154.286Y-87.2
X154.301Y-81.324
X154.406Y-73.271
X154.495Y-77.21
X154.495Y-78.46
X154.495Y-79.71
X154.5Y-102.0
X154.693Y-89.754
X154.718Y-99.0
X155.0Y-92.0
X155.0Y-101.0
X155.343Y-81.867
X155.509Y-72.153
X155.745Y-77.21
X155.745Y-78.46
X155.745Y-79.71
X156.552Y-81.565
X157.111Y-77.683
X157.111Y-79.239
X157.337Y-80.538
X157.654Y-72.229
X158.0Y-117.0
X158.455Y-76.806
X159.0Y-108.0
X159.0Y-110.0
X159.5Y-79.5
X159.5Y-80.5
X159.5Y-105.0
X159.5Y-113.0
X160.223Y-75.069
X160.254Y-90.274
X160.5Y-89.0
X160.5Y-91.5
X161.295Y-79.826
X161.968Y-89.076
X162.0Y-90.5
X162.125Y-73.566
X162.254Y-121.37
X162.5Y-81.0
X162.5Y-82.3
X162.615Y-78.331
X163.5Y-111.5
X163.924Y-108.864
X164.0Y-91.5
X164.0Y-113.0
X165.0Y-111.5
X165.5Y-113.0
X166.281Y-81.55
X166.311Y-77.939
X166.387Y-75.16
X166.432Y-85.765
X166.484Y-121.37
X166.5Y-66.5
X166.5Y-68.5
X166.5Y-70.0
X166.5Y-73.0
X166.5Y-91.0
X166.5Y-112.5
X166.914Y-92.364
X166.925Y-109.001
X167.0Y-111.5
X167.323Y-88.681
X167.5Y-115.9
X168.227Y-75.669
X168.357Y-117.248
X168.5Y-115.5
X168.917Y-114.541
X169.627Y-115.553
X169.88Y-117.248
X169.881Y-75.844
X170.23Y-108.922
X170.239Y-88.744
X170.282Y-106.465
X170.296Y-78.474
X170.3Y-91.305
X170.344Y-96.28
X170.37Y-86.025
X170.379Y-101.351
X170.449Y-93.631
X170.587Y-72.748
X171.0Y-81.5
X171.207Y-70.686
X171.636Y-111.248
X172.0Y-83.5
X172.0Y-109.5
X172.154Y-75.844
X172.5Y-80.0
X172.684Y-91.206
X172.765Y-89.592
X172.832Y-87.457
X173.0Y-120.0
X173.152Y-79.363
X173.398Y-102.044
X173.472Y-105.055
X173.472Y-84.784
X173.577Y-94.837
X173.64Y-97.071
X173.643Y-108.204
X173.763Y-83.515
X174.0Y-71.0
X174.0Y-93.5
X174.234Y-82.463
X174.404Y-111.179
X174.459Y-66.358
X174.5Y-107.0
X174.559Y-69.128
X174.704Y-109.177
X174.887Y-83.043
X174.941Y-81.267
X175.0Y-86.5
X175.119Y-77.5
X175.177Y-78.227
X175.5Y-86.0
X175.5Y-116.5
X175.509Y-88.259
X176.199Y-121.4
X178.0Y-74.5
X178.0Y-84.5
X178.0Y-87.0
X178.0Y-88.0
X178.0Y-104.0
X178.164Y-96.286
X178.336Y-65.955
X178.5Y-70.5
X178.5Y-78.5
X178.5Y-81.0
X178.5Y-99.0
X178.575Y-69.367
X178.765Y-72.078
X179.0Y-74.5
X179.0Y-101.0
X180.0Y-75.5
X181.0Y-83.5
X181.0Y-86.5
X181.0Y-89.0
X181.0Y-91.0
X181.0Y-93.0
X181.0Y-96.0
X181.0Y-101.5
X181.25Y-99.0
X181.85Y-97.85
X182.0Y-78.0
X182.0Y-93.0
X182.466Y-65.968
X182.466Y-71.18
X182.491Y-69.531
X182.789Y-87.987
X183.0Y-77.0
X183.0Y-85.5
X183.5Y-80.0
X184.0Y-111.5
X184.5Y-110.0
X184.675Y-100.825
X185.0Y-77.0
X185.0Y-80.0
X185.25Y-101.75
X187.0Y-66.5
X187.0Y-69.5
X187.5Y-72.0
X187.5Y-74.0
X187.5Y-121.5
X190.5Y-91.5
X190.5Y-114.5
X191.5Y-73.0
X194.0Y-109.0
X194.5Y-66.0
X194.5Y-70.5
X194.5Y-91.5
X194.5Y-102.5
X194.5Y-121.5
X194.594Y-79.311
X194.751Y-86.078
X195.0Y-97.5
X195.0Y-115.0
T2
X128.295Y-69.175
X128.295Y-70.525
X129.145Y-69.175
X129.145Y-70.525
X129.995Y-69.175
X129.995Y-70.525
X130.845Y-69.175
X130.845Y-70.525
X131.695Y-69.175
X131.695Y-70.525
X132.545Y-69.175
X132.545Y-70.525
X133.395Y-69.175
X133.395Y-70.525
X134.245Y-69.175
X134.245Y-70.525
T3
X170.723Y-114.5
X172.223Y-114.5
T4
X118.0Y-98.92
X118.0Y-101.46
X118.0Y-104.0
X118.0Y-106.54
X119.92Y-79.5
X122.42Y-98.0
X130.08Y-79.5
X132.58Y-98.0
X169.0Y-77.14
X169.0Y-79.68
X169.0Y-82.22
X169.0Y-84.76
X169.0Y-87.3
X169.0Y-89.84
X169.0Y-92.38
X169.0Y-94.92
X169.0Y-97.46
X169.0Y-100.0
X169.0Y-102.54
X169.0Y-105.08
X169.0Y-107.62
X169.0Y-110.16
X176.62Y-77.14
X176.62Y-79.68
X176.62Y-82.22
X176.62Y-84.76
X176.62Y-87.3
X176.62Y-89.84
X176.62Y-92.38
X176.62Y-94.92
X176.62Y-97.46
X176.62Y-100.0
X176.62Y-102.54
X176.62Y-105.08
X176.62Y-107.62
X176.62Y-110.16
X179.5Y-77.22
X179.5Y-79.76
X179.5Y-82.3
X179.5Y-84.84
X179.5Y-87.38
X179.5Y-89.92
X179.5Y-92.46
X179.5Y-95.0
X179.5Y-97.54
X187.12Y-77.22
X187.12Y-79.76
X187.12Y-82.3
X187.12Y-84.84
X187.12Y-87.38
X187.12Y-89.92
X187.12Y-92.46
X187.12Y-95.0
X187.12Y-97.54
T5
X116.73Y-75.5
X119.27Y-75.5
T6
X116.46Y-94.0
X119.0Y-94.0
X120.46Y-88.0
X120.5Y-83.5
X121.54Y-94.0
X123.0Y-88.0
X123.04Y-83.5
X124.08Y-94.0
X127.5Y-83.5
X128.728Y-103.486
X128.728Y-106.026
X128.728Y-108.566
X128.728Y-111.106
X130.04Y-83.5
X131.268Y-103.486
X131.268Y-106.026
X131.268Y-108.566
X131.268Y-111.106
X132.58Y-83.5
X135.0Y-103.46
X135.0Y-106.0
X135.0Y-108.54
X135.0Y-111.08
X137.54Y-103.46
X137.54Y-106.0
X137.54Y-108.54
X137.54Y-111.08
X143.92Y-103.46
X143.92Y-106.0
X143.92Y-113.62
X149.0Y-103.46
X149.0Y-106.0
X149.0Y-113.62
X157.0Y-94.0
X157.0Y-96.54
X157.0Y-99.08
X157.0Y-101.62
X157.0Y-104.16
X157.0Y-106.7
X157.0Y-109.24
X157.0Y-111.78
X161.5Y-93.92
X161.5Y-96.46
X161.5Y-99.0
X161.5Y-101.54
X161.5Y-104.08
X161.5Y-106.62
X161.5Y-109.16
X161.5Y-111.7
X165.346Y-93.894
X165.346Y-96.434
X165.357Y-101.059
X165.357Y-103.599
X176.58Y-67.96
X176.58Y-70.5
X176.58Y-73.04
X180.093Y-103.542
X180.093Y-106.082
X180.093Y-113.703
X180.5Y-67.96
X180.5Y-70.5
X180.5Y-73.04
X184.5Y-67.92
X184.5Y-70.46
X184.5Y-73.0
X185.172Y-103.542
X185.172Y-106.082
X185.172Y-113.703
X190.5Y-76.96
X190.5Y-79.5
X190.5Y-82.04
X190.5Y-84.58
X190.5Y-87.12
X190.5Y-89.66
X190.5Y-93.46
X190.5Y-96.0
X190.5Y-98.54
X190.5Y-101.08
X190.5Y-103.62
X190.5Y-106.16
X190.5Y-108.7
X190.5Y-111.24
T7
X121.23Y-68.54
X123.77Y-68.54
X143.92Y-119.0
X146.46Y-119.0
X146.75Y-95.75
X146.75Y-100.25
X149.0Y-119.0
X152.42Y-119.0
X153.25Y-95.75
X153.25Y-100.25
X162.58Y-119.0
X165.92Y-119.0
X169.5Y-68.54
X172.04Y-68.54
X176.08Y-119.0
X180.42Y-119.0
X182.96Y-119.0
X185.5Y-119.0
T8
X116.0Y-83.5
X116.0Y-88.0
T3
G00X126.945Y-66.565
M15
G01X126.945Y-65.765
M16
G05
G00X126.945Y-70.295
M15
G01X126.945Y-68.795
M16
G05
G00X135.595Y-66.565
M15
G01X135.595Y-65.765
M16
G05
G00X135.595Y-70.295
M15
G01X135.595Y-68.795
M16
G05
M30
