%TF.GenerationSoftware,KiCad,Pcbnew,10.0.1*%
%TF.CreationDate,2026-08-19T08:27:47+02:00*%
%TF.ProjectId,HauptprintV1,48617570-7470-4726-996e-7456312e6b69,1.0*%
%TF.SameCoordinates,Original*%
%TF.FileFunction,Soldermask,Bot*%
%TF.FilePolarity,Negative*%
%FSLAX46Y46*%
G04 Gerber Fmt 4.6, Leading zero omitted, Abs format (unit mm)*
G04 Created by KiCad (PCBNEW 10.0.1) date 2026-08-19 08:27:47*
%MOMM*%
%LPD*%
G01*
G04 APERTURE LIST*
G04 Aperture macros list*
%AMRoundRect*
0 Rectangle with rounded corners*
0 $1 Rounding radius*
0 $2 $3 $4 $5 $6 $7 $8 $9 X,Y pos of 4 corners*
0 Add a 4 corners polygon primitive as box body*
4,1,4,$2,$3,$4,$5,$6,$7,$8,$9,$2,$3,0*
0 Add four circle primitives for the rounded corners*
1,1,$1+$1,$2,$3*
1,1,$1+$1,$4,$5*
1,1,$1+$1,$6,$7*
1,1,$1+$1,$8,$9*
0 Add four rect primitives between the rounded corners*
20,1,$1+$1,$2,$3,$4,$5,0*
20,1,$1+$1,$4,$5,$6,$7,0*
20,1,$1+$1,$6,$7,$8,$9,0*
20,1,$1+$1,$8,$9,$2,$3,0*%
G04 Aperture macros list end*
%ADD10R,1.700000X1.700000*%
%ADD11C,1.700000*%
%ADD12C,3.800000*%
%ADD13R,1.500000X1.500000*%
%ADD14C,1.500000*%
%ADD15RoundRect,0.250000X-0.550000X-0.550000X0.550000X-0.550000X0.550000X0.550000X-0.550000X0.550000X0*%
%ADD16C,1.600000*%
%ADD17RoundRect,0.249999X-0.850001X-0.850001X0.850001X-0.850001X0.850001X0.850001X-0.850001X0.850001X0*%
%ADD18C,2.200000*%
%ADD19R,2.000000X2.000000*%
%ADD20C,2.000000*%
%ADD21RoundRect,0.250000X0.550000X0.550000X-0.550000X0.550000X-0.550000X-0.550000X0.550000X-0.550000X0*%
%ADD22C,1.100000*%
%ADD23RoundRect,0.249999X0.850001X0.850001X-0.850001X0.850001X-0.850001X-0.850001X0.850001X-0.850001X0*%
%ADD24R,1.800000X1.800000*%
%ADD25C,1.800000*%
%ADD26RoundRect,0.250000X0.350000X0.350000X-0.350000X0.350000X-0.350000X-0.350000X0.350000X-0.350000X0*%
%ADD27C,1.200000*%
%ADD28C,0.700000*%
%ADD29O,0.900000X2.400000*%
%ADD30O,0.900000X1.700000*%
G04 APERTURE END LIST*
D10*
%TO.C,J18*%
X131267619Y-103486253D03*
D11*
X128727619Y-103486253D03*
X131267619Y-106026253D03*
X128727619Y-106026253D03*
X131267619Y-108566253D03*
X128727619Y-108566253D03*
X131267619Y-111106253D03*
X128727619Y-111106253D03*
%TD*%
D10*
%TO.C,J4*%
X137540000Y-103460000D03*
D11*
X135000000Y-103460000D03*
X137540000Y-106000000D03*
X135000000Y-106000000D03*
X137540000Y-108540000D03*
X135000000Y-108540000D03*
X137540000Y-111080000D03*
X135000000Y-111080000D03*
%TD*%
D12*
%TO.C,H2*%
X116000000Y-88000000D03*
%TD*%
D13*
%TO.C,U3*%
X118000000Y-98920000D03*
D14*
X118000000Y-101460000D03*
X118000000Y-104000000D03*
X118000000Y-106540000D03*
%TD*%
D10*
%TO.C,J7*%
X184500000Y-73000000D03*
D11*
X184500000Y-70460000D03*
X184500000Y-67920000D03*
%TD*%
D15*
%TO.C,U5*%
X179500000Y-77220000D03*
D16*
X179500000Y-79760000D03*
X179500000Y-82300000D03*
X179500000Y-84840000D03*
X179500000Y-87380000D03*
X179500000Y-89920000D03*
X179500000Y-92460000D03*
X179500000Y-95000000D03*
X179500000Y-97540000D03*
X187120000Y-97540000D03*
X187120000Y-95000000D03*
X187120000Y-92460000D03*
X187120000Y-89920000D03*
X187120000Y-87380000D03*
X187120000Y-84840000D03*
X187120000Y-82300000D03*
X187120000Y-79760000D03*
X187120000Y-77220000D03*
%TD*%
D10*
%TO.C,J8*%
X180500000Y-73040000D03*
D11*
X180500000Y-70500000D03*
X180500000Y-67960000D03*
%TD*%
D17*
%TO.C,D7*%
X152420000Y-119000000D03*
D18*
X162580000Y-119000000D03*
%TD*%
D10*
%TO.C,J11*%
X190500000Y-76960000D03*
D11*
X190500000Y-79500000D03*
X190500000Y-82040000D03*
X190500000Y-84580000D03*
X190500000Y-87120000D03*
X190500000Y-89660000D03*
%TD*%
D10*
%TO.C,J15*%
X161500000Y-93920000D03*
D11*
X161500000Y-96460000D03*
X161500000Y-99000000D03*
X161500000Y-101540000D03*
X161500000Y-104080000D03*
X161500000Y-106620000D03*
X161500000Y-109160000D03*
X161500000Y-111700000D03*
%TD*%
D10*
%TO.C,J13*%
X123000000Y-88000000D03*
D11*
X120460000Y-88000000D03*
%TD*%
D10*
%TO.C,J5*%
X165357245Y-101058956D03*
D11*
X165357245Y-103598956D03*
%TD*%
D19*
%TO.C,K2*%
X143920000Y-103460000D03*
D20*
X143920000Y-106000000D03*
X143920000Y-113620000D03*
X149000000Y-113620000D03*
X149000000Y-106000000D03*
X149000000Y-103460000D03*
%TD*%
D21*
%TO.C,U4*%
X176620000Y-110160000D03*
D16*
X176620000Y-107620000D03*
X176620000Y-105080000D03*
X176620000Y-102540000D03*
X176620000Y-100000000D03*
X176620000Y-97460000D03*
X176620000Y-94920000D03*
X176620000Y-92380000D03*
X176620000Y-89840000D03*
X176620000Y-87300000D03*
X176620000Y-84760000D03*
X176620000Y-82220000D03*
X176620000Y-79680000D03*
X176620000Y-77140000D03*
X169000000Y-77140000D03*
X169000000Y-79680000D03*
X169000000Y-82220000D03*
X169000000Y-84760000D03*
X169000000Y-87300000D03*
X169000000Y-89840000D03*
X169000000Y-92380000D03*
X169000000Y-94920000D03*
X169000000Y-97460000D03*
X169000000Y-100000000D03*
X169000000Y-102540000D03*
X169000000Y-105080000D03*
X169000000Y-107620000D03*
X169000000Y-110160000D03*
%TD*%
D10*
%TO.C,J3*%
X165346004Y-96434080D03*
D11*
X165346004Y-93894080D03*
%TD*%
D10*
%TO.C,J16*%
X190500000Y-93460000D03*
D11*
X190500000Y-96000000D03*
X190500000Y-98540000D03*
X190500000Y-101080000D03*
X190500000Y-103620000D03*
X190500000Y-106160000D03*
X190500000Y-108700000D03*
X190500000Y-111240000D03*
%TD*%
D10*
%TO.C,J9*%
X176580000Y-73040000D03*
D11*
X176580000Y-70500000D03*
X176580000Y-67960000D03*
%TD*%
D22*
%TO.C,J10*%
X180420000Y-121540000D03*
X182960000Y-121540000D03*
X185500000Y-121540000D03*
D17*
X180420000Y-119000000D03*
D18*
X182960000Y-119000000D03*
X185500000Y-119000000D03*
%TD*%
D20*
%TO.C,SW1*%
X153250000Y-100250000D03*
X146750000Y-100250000D03*
X153250000Y-95750000D03*
X146750000Y-95750000D03*
%TD*%
D22*
%TO.C,J25*%
X172040000Y-66000000D03*
X169500000Y-66000000D03*
D23*
X172040000Y-68540000D03*
D18*
X169500000Y-68540000D03*
%TD*%
D22*
%TO.C,J14*%
X143920000Y-121540000D03*
X146460000Y-121540000D03*
X149000000Y-121540000D03*
D17*
X143920000Y-119000000D03*
D18*
X146460000Y-119000000D03*
X149000000Y-119000000D03*
%TD*%
D10*
%TO.C,J17*%
X127500000Y-83500000D03*
D11*
X130040000Y-83500000D03*
X132580000Y-83500000D03*
%TD*%
D12*
%TO.C,H1*%
X116000000Y-83500000D03*
%TD*%
D10*
%TO.C,J2*%
X157000000Y-111780000D03*
D11*
X157000000Y-109240000D03*
X157000000Y-106700000D03*
X157000000Y-104160000D03*
X157000000Y-101620000D03*
X157000000Y-99080000D03*
X157000000Y-96540000D03*
X157000000Y-94000000D03*
%TD*%
D24*
%TO.C,D1*%
X116730000Y-75500000D03*
D25*
X119270000Y-75500000D03*
%TD*%
D10*
%TO.C,J6*%
X124080000Y-94000000D03*
D11*
X121540000Y-94000000D03*
X119000000Y-94000000D03*
X116460000Y-94000000D03*
%TD*%
D22*
%TO.C,J24*%
X123770000Y-66000000D03*
X121230000Y-66000000D03*
D23*
X123770000Y-68540000D03*
D18*
X121230000Y-68540000D03*
%TD*%
D10*
%TO.C,J12*%
X120500000Y-83500000D03*
D11*
X123040000Y-83500000D03*
%TD*%
D16*
%TO.C,R18*%
X122420000Y-98000000D03*
X132580000Y-98000000D03*
%TD*%
D19*
%TO.C,K1*%
X180092500Y-103542500D03*
D20*
X180092500Y-106082500D03*
X180092500Y-113702500D03*
X185172500Y-113702500D03*
X185172500Y-106082500D03*
X185172500Y-103542500D03*
%TD*%
D16*
%TO.C,R16*%
X119920000Y-79500000D03*
X130080000Y-79500000D03*
%TD*%
D17*
%TO.C,D6*%
X165920000Y-119000000D03*
D18*
X176080000Y-119000000D03*
%TD*%
D26*
%TO.C,C8*%
X172222600Y-114500000D03*
D27*
X170722600Y-114500000D03*
%TD*%
D28*
%TO.C,J1*%
X134245000Y-70525000D03*
X133395000Y-70525000D03*
X132545000Y-70525000D03*
X131695000Y-70525000D03*
X130845000Y-70525000D03*
X129995000Y-70525000D03*
X129145000Y-70525000D03*
X128295000Y-70525000D03*
X128295000Y-69175000D03*
X129145000Y-69175000D03*
X129995000Y-69175000D03*
X130845000Y-69175000D03*
X131695000Y-69175000D03*
X132545000Y-69175000D03*
X133395000Y-69175000D03*
X134245000Y-69175000D03*
D29*
X135595000Y-69545000D03*
D30*
X135595000Y-66165000D03*
D29*
X126945000Y-69545000D03*
D30*
X126945000Y-66165000D03*
%TD*%
D20*
%TO.C,TP2*%
X172500000Y-74000000D03*
%TD*%
%TO.C,TP1*%
X169000000Y-74000000D03*
%TD*%
M02*
