M48
; DRILL file KiCad 10.0.5 date 2026-08-13T22:51:07
; FORMAT={-:-/ absolute / metric / decimal}
; #@! TF.CreationDate,2026-08-13T22:51:07+02:00
; #@! TF.GenerationSoftware,Kicad,Pcbnew,10.0.5
; #@! TF.FileFunction,NonPlated,1,2,NPTH
FMAT,2
METRIC
; #@! TA.AperFunction,NonPlated,NPTH,ComponentDrill
T1C1.100
%
G90
G05
T1
X74.46Y-99.96
X74.46Y-102.5
X74.835Y-84.525
X74.835Y-87.065
X78.953Y-128.54
X81.493Y-128.54
X84.033Y-128.54
X88.02Y-128.54
X90.56Y-128.54
X93.1Y-128.54
X97.087Y-128.54
X99.627Y-128.54
X102.167Y-128.54
X106.153Y-128.54
X108.693Y-128.54
X111.233Y-128.54
X115.22Y-128.54
X117.76Y-128.54
X120.3Y-128.54
X124.287Y-128.54
X126.827Y-128.54
X129.367Y-128.54
X133.353Y-128.54
X135.893Y-128.54
X138.433Y-128.54
X142.42Y-128.54
X144.96Y-128.54
X147.5Y-128.54
X151.487Y-128.54
X154.027Y-128.54
X156.567Y-128.54
X159.96Y-82.96
X160.553Y-128.54
X162.5Y-82.96
X163.093Y-128.54
X165.633Y-128.54
X169.62Y-128.54
X172.16Y-128.54
X174.7Y-128.54
X177.23Y-75.767
X178.687Y-128.54
X179.77Y-75.767
X181.227Y-128.54
X183.767Y-128.54
X187.753Y-128.54
X190.293Y-128.54
X192.833Y-128.54
X196.82Y-128.54
X199.36Y-128.54
X201.9Y-128.54
X202.46Y-75.96
X205.0Y-75.96
X205.887Y-128.54
X208.427Y-128.54
X210.967Y-128.54
X214.953Y-128.54
X217.493Y-128.54
X220.033Y-128.54
M30
