M48
; DRILL file KiCad 10.0.5 date 2026-08-13T22:51:07
; FORMAT={-:-/ absolute / metric / decimal}
; #@! TF.CreationDate,2026-08-13T22:51:07+02:00
; #@! TF.GenerationSoftware,Kicad,Pcbnew,10.0.5
; #@! TF.FileFunction,Plated,1,2,PTH
FMAT,2
METRIC
; #@! TA.AperFunction,Plated,PTH,ViaDrill
T1C0.300
; #@! TA.AperFunction,Plated,PTH,ComponentDrill
T2C0.600
; #@! TA.AperFunction,Plated,PTH,ComponentDrill
T3C0.700
; #@! TA.AperFunction,Plated,PTH,ComponentDrill
T4C0.800
; #@! TA.AperFunction,Plated,PTH,ComponentDrill
T5C0.900
; #@! TA.AperFunction,Plated,PTH,ComponentDrill
T6C1.000
; #@! TA.AperFunction,Plated,PTH,ComponentDrill
T7C1.100
%
G90
G05
T1
X76.5Y-122.0
X77.0Y-97.5
X77.5Y-91.0
X77.5Y-104.5
X80.0Y-88.5
X80.0Y-93.5
X81.5Y-105.0
X83.0Y-91.0
X83.0Y-100.0
X85.5Y-93.0
X85.5Y-95.0
X85.5Y-97.0
X85.5Y-98.5
X85.995Y-122.37
X87.5Y-93.0
X87.5Y-95.0
X87.5Y-97.0
X87.5Y-98.5
X88.0Y-101.5
X88.0Y-104.5
X90.0Y-99.0
X91.5Y-101.5
X92.5Y-107.5
X95.0Y-98.5
X95.157Y-122.438
X96.373Y-99.16
X97.5Y-102.0
X99.0Y-93.0
X100.0Y-95.0
X102.0Y-106.5
X104.234Y-122.336
X104.5Y-108.0
X105.0Y-104.0
X105.5Y-94.5
X108.0Y-106.0
X108.5Y-88.5
X110.0Y-108.0
X113.277Y-122.471
X113.5Y-100.5
X117.5Y-102.5
X120.0Y-107.0
X122.304Y-122.455
X123.0Y-104.0
X124.0Y-89.0
X125.5Y-106.5
X127.5Y-101.0
X128.0Y-107.0
X131.348Y-122.404
X132.0Y-88.5
X135.0Y-106.5
X136.461Y-96.394
X138.0Y-105.5
X138.809Y-96.242
X140.476Y-122.488
X141.473Y-96.236
X142.0Y-87.0
X142.5Y-88.0
X143.0Y-106.5
X143.5Y-102.0
X143.567Y-95.884
X146.0Y-108.5
X146.291Y-96.03
X147.0Y-101.5
X148.882Y-95.326
X149.0Y-87.0
X149.485Y-122.539
X150.5Y-104.5
X152.0Y-94.0
X153.281Y-99.331
X153.5Y-104.0
X154.0Y-96.5
X155.0Y-94.5
X156.0Y-106.5
X157.5Y-87.4
X157.5Y-94.5
X158.478Y-122.421
X159.5Y-101.5
X160.5Y-94.0
X162.0Y-106.0
X163.5Y-92.5
X164.0Y-89.1
X164.0Y-94.5
X165.0Y-107.0
X165.5Y-92.5
X166.5Y-98.0
X167.691Y-122.471
X168.0Y-89.4
X168.0Y-89.4
X170.5Y-95.0
X170.5Y-98.0
X171.0Y-102.0
X171.5Y-84.0
X174.0Y-106.5
X174.5Y-94.5
X175.0Y-86.0
X176.785Y-122.556
X178.5Y-94.0
X178.5Y-97.5
X178.5Y-107.0
X179.0Y-90.5
X179.5Y-104.5
X180.0Y-95.0
X180.0Y-106.5
X181.0Y-108.5
X183.04Y-96.663
X183.5Y-103.5
X185.0Y-94.0
X185.795Y-122.455
X186.408Y-96.315
X186.5Y-93.0
X186.5Y-108.0
X187.0Y-87.0
X187.5Y-93.0
X187.5Y-102.5
X189.01Y-90.924
X189.5Y-95.0
X190.5Y-102.5
X191.5Y-107.0
X193.18Y-89.68
X194.5Y-89.0
X194.838Y-122.455
X195.0Y-93.5
X197.5Y-106.5
X198.0Y-95.0
X198.5Y-105.5
X200.0Y-108.5
X200.5Y-95.5
X200.5Y-101.0
X203.0Y-89.0
X203.5Y-108.0
X204.0Y-122.5
X207.0Y-101.0
X209.0Y-76.5
X209.5Y-81.5
X209.5Y-89.0
X209.5Y-91.0
X209.5Y-93.5
X210.5Y-108.5
X212.5Y-76.5
X212.5Y-79.5
X212.5Y-81.5
X213.0Y-96.5
X213.0Y-122.5
X214.5Y-87.0
X214.5Y-91.0
X214.5Y-93.5
X215.0Y-105.5
X216.0Y-100.5
X216.5Y-79.5
X217.5Y-76.5
X217.5Y-98.5
X219.5Y-84.5
X219.5Y-87.0
X219.5Y-91.0
X220.0Y-107.0
X222.0Y-122.5
X223.0Y-93.755
T2
X97.5Y-97.0
X99.0Y-97.0
X149.0Y-102.0
X150.5Y-102.0
X178.0Y-86.0
X179.5Y-86.0
T3
X209.92Y-78.6
X209.92Y-96.38
X220.08Y-78.6
X220.08Y-93.84
X220.08Y-96.38
T4
X104.84Y-90.695
X104.84Y-98.315
X107.38Y-90.695
X107.38Y-98.315
X109.92Y-90.695
X109.92Y-98.315
X112.46Y-90.695
X112.46Y-98.315
X115.0Y-90.695
X115.0Y-98.315
X117.54Y-90.695
X117.54Y-98.315
X120.08Y-90.695
X120.08Y-98.315
X122.62Y-90.695
X122.62Y-98.315
X125.16Y-90.695
X125.16Y-98.315
X131.99Y-90.685
X131.99Y-98.305
X134.53Y-90.685
X134.53Y-98.305
X137.07Y-90.685
X137.07Y-98.305
X139.61Y-90.685
X139.61Y-98.305
X142.15Y-90.685
X142.15Y-98.305
X144.69Y-90.685
X144.69Y-98.305
X147.23Y-90.685
X147.23Y-98.305
X149.77Y-90.685
X149.77Y-98.305
X152.31Y-90.685
X152.31Y-98.305
X154.85Y-90.685
X154.85Y-98.305
X157.39Y-90.685
X157.39Y-98.305
X159.93Y-90.685
X159.93Y-98.305
X162.47Y-90.685
X162.47Y-98.305
X165.01Y-90.685
X165.01Y-98.305
X185.22Y-91.38
X185.22Y-99.0
X185.92Y-88.0
X187.76Y-91.38
X187.76Y-99.0
X190.3Y-91.38
X190.3Y-99.0
X192.84Y-91.38
X192.84Y-99.0
X195.38Y-91.38
X195.38Y-99.0
X196.08Y-88.0
X197.92Y-91.38
X197.92Y-99.0
X200.46Y-91.38
X200.46Y-99.0
X203.0Y-91.38
X203.0Y-99.0
X205.54Y-91.38
X205.54Y-99.0
T5
X188.23Y-84.0
X190.77Y-84.0
T6
X78.789Y-110.215
X78.789Y-117.835
X78.789Y-120.375
X83.869Y-110.215
X83.869Y-117.835
X83.869Y-120.375
X88.328Y-110.297
X88.328Y-117.917
X88.328Y-120.457
X93.407Y-110.297
X93.407Y-117.917
X93.407Y-120.457
X97.328Y-110.297
X97.328Y-117.917
X97.328Y-120.457
X102.407Y-110.297
X102.407Y-117.917
X102.407Y-120.457
X106.328Y-110.297
X106.328Y-117.917
X106.328Y-120.457
X111.407Y-110.297
X111.407Y-117.917
X111.407Y-120.457
X115.328Y-110.297
X115.328Y-117.917
X115.328Y-120.457
X120.407Y-110.297
X120.407Y-117.917
X120.407Y-120.457
X124.328Y-110.297
X124.328Y-117.917
X124.328Y-120.457
X129.407Y-110.297
X129.407Y-117.917
X129.407Y-120.457
X133.327Y-110.297
X133.327Y-117.917
X133.327Y-120.457
X138.407Y-110.297
X138.407Y-117.917
X138.407Y-120.457
X142.327Y-110.297
X142.327Y-117.917
X142.327Y-120.457
X147.407Y-110.297
X147.407Y-117.917
X147.407Y-120.457
X151.327Y-110.297
X151.327Y-117.917
X151.327Y-120.457
X156.407Y-110.297
X156.407Y-117.917
X156.407Y-120.457
X160.827Y-110.297
X160.827Y-117.917
X160.827Y-120.457
X165.907Y-110.297
X165.907Y-117.917
X165.907Y-120.457
X168.5Y-91.96
X168.5Y-94.5
X168.5Y-97.04
X169.827Y-110.297
X169.827Y-117.917
X169.827Y-120.457
X172.5Y-91.96
X172.5Y-94.5
X172.5Y-97.04
X174.907Y-110.297
X174.907Y-117.917
X174.907Y-120.457
X176.5Y-91.96
X176.5Y-94.5
X176.5Y-97.04
X178.827Y-110.297
X178.827Y-117.917
X178.827Y-120.457
X183.907Y-110.297
X183.907Y-117.917
X183.907Y-120.457
X187.827Y-110.297
X187.827Y-117.917
X187.827Y-120.457
X192.907Y-110.297
X192.907Y-117.917
X192.907Y-120.457
X196.827Y-110.297
X196.827Y-117.917
X196.827Y-120.457
X201.907Y-110.297
X201.907Y-117.917
X201.907Y-120.457
X205.827Y-110.297
X205.827Y-117.917
X205.827Y-120.457
X210.907Y-110.297
X210.907Y-117.917
X210.907Y-120.457
X214.827Y-110.297
X214.827Y-117.917
X214.827Y-120.457
X219.907Y-110.297
X219.907Y-117.917
X219.907Y-120.457
T7
X75.92Y-106.0
X77.0Y-99.96
X77.0Y-102.5
X77.375Y-84.525
X77.375Y-87.065
X78.953Y-126.0
X81.493Y-126.0
X84.033Y-126.0
X85.42Y-102.5
X86.08Y-106.0
X88.02Y-126.0
X90.56Y-126.0
X93.1Y-126.0
X94.92Y-106.0
X95.58Y-102.5
X97.087Y-126.0
X99.627Y-126.0
X102.167Y-126.0
X103.5Y-102.5
X105.08Y-106.0
X106.153Y-126.0
X108.693Y-126.0
X111.233Y-126.0
X112.92Y-106.0
X113.66Y-102.5
X115.22Y-126.0
X117.76Y-126.0
X120.3Y-126.0
X121.42Y-102.5
X123.08Y-106.0
X124.287Y-126.0
X126.827Y-126.0
X129.367Y-126.0
X130.92Y-106.0
X131.58Y-102.5
X133.353Y-126.0
X135.34Y-102.5
X135.893Y-126.0
X138.433Y-126.0
X141.08Y-106.0
X142.42Y-126.0
X144.96Y-126.0
X145.5Y-102.5
X147.5Y-126.0
X148.92Y-106.0
X151.487Y-126.0
X154.027Y-126.0
X156.567Y-126.0
X157.5Y-102.5
X159.08Y-106.0
X159.96Y-85.5
X160.553Y-126.0
X162.5Y-85.5
X163.093Y-126.0
X165.633Y-126.0
X166.92Y-106.0
X167.66Y-102.5
X169.62Y-126.0
X172.16Y-126.0
X174.7Y-126.0
X175.5Y-102.5
X177.08Y-106.0
X177.23Y-78.307
X178.687Y-126.0
X179.77Y-78.307
X181.227Y-126.0
X183.767Y-126.0
X184.84Y-106.0
X185.66Y-102.5
X187.753Y-126.0
X190.293Y-126.0
X192.833Y-126.0
X193.34Y-102.5
X195.0Y-106.0
X196.82Y-126.0
X199.36Y-126.0
X201.9Y-126.0
X202.46Y-78.5
X202.5Y-106.0
X203.5Y-102.5
X205.0Y-78.5
X205.887Y-126.0
X208.427Y-126.0
X210.92Y-102.5
X210.967Y-126.0
X212.66Y-106.0
X214.953Y-126.0
X217.493Y-126.0
X220.033Y-126.0
X221.08Y-102.5
M30
